<?xml version="1.0" encoding="UTF-8"?>
<svg xmlns="http://www.w3.org/2000/svg" viewBox="0 0 68.00 59.43" width="68" height="59">
  <line x1="34.00" y1="29.71" x2="66.00" y2="29.71" stroke="#5277C3" stroke-width="2" stroke-linecap="round"/>
  <line x1="46.22" y1="29.71" x2="57.41" y2="18.53" stroke="#5277C3" stroke-width="2" stroke-linecap="round"/>
  <line x1="46.22" y1="29.71" x2="57.41" y2="40.90" stroke="#5277C3" stroke-width="2" stroke-linecap="round"/>
  <line x1="34.00" y1="29.71" x2="50.00" y2="57.43" stroke="#7EBAE4" stroke-width="2" stroke-linecap="round"/>
  <line x1="40.11" y1="40.30" x2="55.39" y2="44.39" stroke="#7EBAE4" stroke-width="2" stroke-linecap="round"/>
  <line x1="40.11" y1="40.30" x2="36.02" y2="55.58" stroke="#7EBAE4" stroke-width="2" stroke-linecap="round"/>
  <line x1="34.00" y1="29.71" x2="18.00" y2="57.43" stroke="#5277C3" stroke-width="2" stroke-linecap="round"/>
  <line x1="27.89" y1="40.30" x2="31.98" y2="55.58" stroke="#5277C3" stroke-width="2" stroke-linecap="round"/>
  <line x1="27.89" y1="40.30" x2="12.61" y2="44.39" stroke="#5277C3" stroke-width="2" stroke-linecap="round"/>
  <line x1="34.00" y1="29.71" x2="2.00" y2="29.71" stroke="#7EBAE4" stroke-width="2" stroke-linecap="round"/>
  <line x1="21.78" y1="29.71" x2="10.59" y2="40.90" stroke="#7EBAE4" stroke-width="2" stroke-linecap="round"/>
  <line x1="21.78" y1="29.71" x2="10.59" y2="18.53" stroke="#7EBAE4" stroke-width="2" stroke-linecap="round"/>
  <line x1="34.00" y1="29.71" x2="18.00" y2="2.00" stroke="#5277C3" stroke-width="2" stroke-linecap="round"/>
  <line x1="27.89" y1="19.13" x2="12.61" y2="15.03" stroke="#5277C3" stroke-width="2" stroke-linecap="round"/>
  <line x1="27.89" y1="19.13" x2="31.98" y2="3.84" stroke="#5277C3" stroke-width="2" stroke-linecap="round"/>
  <line x1="34.00" y1="29.71" x2="50.00" y2="2.00" stroke="#7EBAE4" stroke-width="2" stroke-linecap="round"/>
  <line x1="40.11" y1="19.13" x2="36.02" y2="3.84" stroke="#7EBAE4" stroke-width="2" stroke-linecap="round"/>
  <line x1="40.11" y1="19.13" x2="55.39" y2="15.03" stroke="#7EBAE4" stroke-width="2" stroke-linecap="round"/>
</svg>